<?xml version="1.0" encoding="UTF-8" standalone="no"?>
<!-- Created with Inkscape (http://www.inkscape.org/) -->

<svg
   width="210mm"
   height="297mm"
   viewBox="0 0 210 297"
   version="1.1"
   id="svg3592"
   inkscape:version="1.2.2 (b0a8486, 2022-12-01)"
   sodipodi:docname="app-letters.svg"
   xmlns:inkscape="http://www.inkscape.org/namespaces/inkscape"
   xmlns:sodipodi="http://sodipodi.sourceforge.net/DTD/sodipodi-0.dtd"
   xmlns:xlink="http://www.w3.org/1999/xlink"
   xmlns="http://www.w3.org/2000/svg"
   xmlns:svg="http://www.w3.org/2000/svg">
  <sodipodi:namedview
     id="namedview3594"
     pagecolor="#ffffff"
     bordercolor="#000000"
     borderopacity="0.25"
     inkscape:showpageshadow="2"
     inkscape:pageopacity="0.0"
     inkscape:pagecheckerboard="0"
     inkscape:deskcolor="#d1d1d1"
     inkscape:document-units="mm"
     showgrid="true"
     inkscape:zoom="0.42261703"
     inkscape:cx="715.77807"
     inkscape:cy="860.11679"
     inkscape:window-width="1920"
     inkscape:window-height="1027"
     inkscape:window-x="1920"
     inkscape:window-y="62"
     inkscape:window-maximized="1"
     inkscape:current-layer="layer2" />
  <defs
     id="defs3589">
    <linearGradient
       inkscape:collect="always"
       id="linearGradient15487">
      <stop
         style="stop-color:#000000;stop-opacity:1;"
         offset="0"
         id="stop15483" />
      <stop
         style="stop-color:#2f3572;stop-opacity:1;"
         offset="0.25"
         id="stop15495" />
      <stop
         style="stop-color:#919191;stop-opacity:1;"
         offset="0.5"
         id="stop15491" />
      <stop
         style="stop-color:#2f3572;stop-opacity:1;"
         offset="0.75"
         id="stop15493" />
      <stop
         style="stop-color:#000000;stop-opacity:1;"
         offset="1"
         id="stop15485" />
    </linearGradient>
    <linearGradient
       inkscape:collect="always"
       xlink:href="#linearGradient15487"
       id="linearGradient15489"
       x1="54.830045"
       y1="161.89601"
       x2="118.85063"
       y2="161.89601"
       gradientUnits="userSpaceOnUse" />
  </defs>
  <g
     inkscape:label="Layer 1"
     inkscape:groupmode="layer"
     id="layer1"
     style="display:inline;fill:#0000ff">
    <path
       style="opacity:0.453884;fill:#0000ff;stroke-width:0;stroke-linecap:round;stroke-linejoin:round;paint-order:markers fill stroke;stop-color:#000000"
       d="m 35.927287,39.98865 v 21.20699 l 3.67316,2.1207 h 3.673161 3.673161 l 3.673154,-2.1207 V 39.98865 l -3.673154,2.12069 v 16.96561 l -3.673161,2.12069 -3.673161,-2.12069 V 42.10934 Z"
       id="path5116" />
    <path
       style="opacity:0.453884;fill:#0000ff;stroke-width:0;stroke-linecap:round;stroke-linejoin:round;paint-order:markers stroke fill;stop-color:#000000"
       d="m 50.619925,39.98865 3.673157,-2.120703 3.67316,-2.120699 -14.692637,-8.482799 -12.231913,9.800001 v 30.8 l 12.231913,6.05539 14.692637,-8.4828 -7.346317,-4.2414 v 4.2414 l -7.34632,4.2414 -8.594606,-3.91399 v -28 l 8.594606,-6.258603 7.34632,4.241401 z"
       id="path5581"
       sodipodi:nodetypes="cccccccccccccccc" />
    <path
       style="opacity:0.453884;fill:#0000ff;stroke-width:0;stroke-linecap:round;stroke-linejoin:round;paint-order:markers stroke fill;stop-color:#000000"
       d="m 52.557341,59.70793 3.67316,-2.1207 V 44.86304 l -3.67316,2.12069 z"
       id="path5583" />
    <circle
       style="opacity:0.453884;fill:#0000ff;stroke-width:0;stroke-linecap:round;stroke-linejoin:round;paint-order:markers stroke fill;stop-color:#000000"
       id="path5637"
       cx="54.761238"
       cy="42.74234"
       r="2.0070515" />
  </g>
  <g
     inkscape:groupmode="layer"
     id="layer2"
     inkscape:label="Layer 2">
    <g
       id="g15481"
       style="fill-opacity:1;fill:url(#linearGradient15489);stroke-width:1.3;stroke-dasharray:none">
      <path
         style="color:#000000;fill:url(#linearGradient15489);stroke-linecap:round;stroke-linejoin:round;paint-order:stroke fill markers;stroke:none;stroke-opacity:1;fill-opacity:1;stroke-width:1.3;stroke-dasharray:none"
         d="m 116.51758,151.55859 a 1.0585001,1.0585001 0 0 0 -0.74805,0.31055 l -8.8418,8.8418 a 1.0585001,1.0585001 0 0 0 0,1.49609 1.0585001,1.0585001 0 0 0 1.49805,0 l 8.83985,-8.8418 a 1.0585001,1.0585001 0 0 0 0,-1.49609 1.0585001,1.0585001 0 0 0 -0.74805,-0.31055 z"
         id="path6457" />
      <path
         style="color:#000000;fill:url(#linearGradient15489);stroke-linecap:round;stroke-linejoin:round;paint-order:stroke fill markers;stroke:none;stroke-opacity:1;fill-opacity:1;stroke-width:1.3;stroke-dasharray:none"
         d="m 75.572266,104.66992 -20.431641,20.4336 a 1.0585001,1.0585001 0 0 0 0,1.49609 1.0585001,1.0585001 0 0 0 1.496094,0 l 20.433593,-20.43164 a 1.0585001,1.0585001 0 0 0 0,-1.49805 1.0585001,1.0585001 0 0 0 -1.498046,0 z"
         id="path6689" />
      <path
         style="color:#000000;fill:url(#linearGradient15489);stroke-linecap:round;stroke-linejoin:round;paint-order:stroke fill markers;stroke:none;stroke-opacity:1;fill-opacity:1;stroke-width:1.3;stroke-dasharray:none"
         d="m 88.189453,97.955078 a 1.0585001,1.0585001 0 0 0 -0.748047,0.308594 L 55.140625,130.56641 a 1.0585001,1.0585001 0 0 0 0,1.49609 1.0585001,1.0585001 0 0 0 1.496094,0 L 88.939453,99.761719 a 1.0585001,1.0585001 0 0 0 0,-1.498047 1.0585001,1.0585001 0 0 0 -0.75,-0.308594 z"
         id="path6683" />
      <path
         style="color:#000000;fill:url(#linearGradient15489);stroke-linecap:round;stroke-linejoin:round;paint-order:stroke fill markers;stroke:none;stroke-opacity:1;fill-opacity:1;stroke-width:1.3;stroke-dasharray:none"
         d="m 63.652344,127.51563 -8.511719,8.51171 a 1.0585001,1.0585001 0 0 0 0,1.49805 1.0585001,1.0585001 0 0 0 1.496094,0 l 8.511718,-8.51172 a 1.0585001,1.0585001 0 0 0 0,-1.49804 1.0585001,1.0585001 0 0 0 -1.496093,0 z"
         id="path6677" />
      <path
         style="color:#000000;fill:url(#linearGradient15489);stroke-linecap:round;stroke-linejoin:round;paint-order:stroke fill markers;stroke:none;stroke-opacity:1;fill-opacity:1;stroke-width:1.3;stroke-dasharray:none"
         d="m 91.472656,100.13477 a 1.0585001,1.0585001 0 0 0 -0.75,0.31054 l -17.324219,17.32422 a 1.0585001,1.0585001 0 0 0 0,1.4961 1.0585001,1.0585001 0 0 0 1.496094,0 l 17.326172,-17.32422 a 1.0585001,1.0585001 0 0 0 0,-1.4961 1.0585001,1.0585001 0 0 0 -0.748047,-0.31054 z"
         id="path6673" />
      <path
         style="color:#000000;fill:url(#linearGradient15489);stroke-linecap:round;stroke-linejoin:round;paint-order:stroke fill markers;stroke:none;stroke-opacity:1;fill-opacity:1;stroke-width:1.3;stroke-dasharray:none"
         d="m 64.417969,132.65039 a 1.0585001,1.0585001 0 0 0 -0.748047,0.31055 l -8.529297,8.52929 a 1.0585001,1.0585001 0 0 0 0,1.4961 1.0585001,1.0585001 0 0 0 1.496094,0 l 8.529297,-8.5293 a 1.0585001,1.0585001 0 0 0 0,-1.49609 1.0585001,1.0585001 0 0 0 -0.748047,-0.31055 z"
         id="path6667" />
      <path
         style="color:#000000;fill:url(#linearGradient15489);stroke-linecap:round;stroke-linejoin:round;paint-order:stroke fill markers;stroke:none;stroke-opacity:1;fill-opacity:1;stroke-width:1.3;stroke-dasharray:none"
         d="m 94.005859,102.625 -7.058593,7.05859 a 1.0585001,1.0585001 0 0 0 0,1.4961 1.0585001,1.0585001 0 0 0 1.496093,0 l 7.058594,-7.05664 a 1.0585001,1.0585001 0 0 0 0,-1.49805 1.0585001,1.0585001 0 0 0 -1.496094,0 z"
         id="path6663" />
      <path
         style="color:#000000;fill:url(#linearGradient15489);stroke-linecap:round;stroke-linejoin:round;paint-order:stroke fill markers;stroke:none;stroke-opacity:1;fill-opacity:1;stroke-width:1.3;stroke-dasharray:none"
         d="m 63.6875,138.40625 -8.546875,8.54687 a 1.0585001,1.0585001 0 0 0 0,1.4961 1.0585001,1.0585001 0 0 0 1.496094,0 l 8.546875,-8.54688 a 1.0585001,1.0585001 0 0 0 0,-1.49609 1.0585001,1.0585001 0 0 0 -1.496094,0 z"
         id="path6657" />
      <path
         style="color:#000000;fill:url(#linearGradient15489);stroke-linecap:round;stroke-linejoin:round;paint-order:stroke fill markers;stroke:none;stroke-opacity:1;fill-opacity:1;stroke-width:1.3;stroke-dasharray:none"
         d="m 69.802734,132.72852 a 1.0585001,1.0585001 0 0 0 -0.75,0.31054 l -2.152343,2.1543 a 1.0585001,1.0585001 0 0 0 0,1.49609 1.0585001,1.0585001 0 0 0 1.496093,0 l 2.154297,-2.15429 a 1.0585001,1.0585001 0 0 0 0,-1.4961 1.0585001,1.0585001 0 0 0 -0.748047,-0.31054 z"
         id="path6653" />
      <path
         style="color:#000000;fill:url(#linearGradient15489);stroke-linecap:round;stroke-linejoin:round;paint-order:stroke fill markers;stroke:none;stroke-opacity:1;fill-opacity:1;stroke-width:1.3;stroke-dasharray:none"
         d="m 97.287109,104.80469 -7.058593,7.05859 a 1.0585001,1.0585001 0 0 0 0,1.4961 1.0585001,1.0585001 0 0 0 1.498046,0 l 7.056641,-7.05665 a 1.0585001,1.0585001 0 0 0 0,-1.49804 1.0585001,1.0585001 0 0 0 -1.496094,0 z"
         id="path6649" />
      <path
         style="color:#000000;fill:url(#linearGradient15489);stroke-linecap:round;stroke-linejoin:round;paint-order:stroke fill markers;stroke:none;stroke-opacity:1;fill-opacity:1;stroke-width:1.3;stroke-dasharray:none"
         d="m 64.453125,143.54102 a 1.0585001,1.0585001 0 0 0 -0.748047,0.30859 l -8.564453,8.56445 a 1.0585001,1.0585001 0 0 0 0,1.49805 1.0585001,1.0585001 0 0 0 1.496094,0 l 8.564453,-8.56445 a 1.0585001,1.0585001 0 0 0 0,-1.49805 1.0585001,1.0585001 0 0 0 -0.748047,-0.30859 z"
         id="path6643" />
      <path
         style="color:#000000;fill:url(#linearGradient15489);stroke-linecap:round;stroke-linejoin:round;paint-order:stroke fill markers;stroke:none;stroke-opacity:1;fill-opacity:1;stroke-width:1.3;stroke-dasharray:none"
         d="m 72.335937,135.21875 -5.435546,5.43555 a 1.0585001,1.0585001 0 0 0 0,1.49804 1.0585001,1.0585001 0 0 0 1.496093,0 l 5.435547,-5.43554 a 1.0585001,1.0585001 0 0 0 0,-1.49805 1.0585001,1.0585001 0 0 0 -1.496094,0 z"
         id="path6639" />
      <path
         style="color:#000000;fill:url(#linearGradient15489);stroke-linecap:round;stroke-linejoin:round;paint-order:stroke fill markers;stroke:none;stroke-opacity:1;fill-opacity:1;stroke-width:1.3;stroke-dasharray:none"
         d="m 100.56836,106.98633 -7.058594,7.05859 a 1.0585001,1.0585001 0 0 0 0,1.4961 1.0585001,1.0585001 0 0 0 1.498046,0 l 7.058598,-7.0586 a 1.0585001,1.0585001 0 0 0 0,-1.49609 1.0585001,1.0585001 0 0 0 -1.49805,0 z"
         id="path6635" />
      <path
         style="color:#000000;fill:url(#linearGradient15489);stroke-linecap:round;stroke-linejoin:round;paint-order:stroke fill markers;stroke:none;stroke-opacity:1;fill-opacity:1;stroke-width:1.3;stroke-dasharray:none"
         d="m 63.722656,149.29492 -8.582031,8.58203 a 1.0585001,1.0585001 0 0 0 0,1.4961 1.0585001,1.0585001 0 0 0 1.496094,0 l 8.582031,-8.58203 a 1.0585001,1.0585001 0 0 0 0,-1.4961 1.0585001,1.0585001 0 0 0 -1.496094,0 z"
         id="path6629" />
      <path
         style="color:#000000;fill:url(#linearGradient15489);stroke-linecap:round;stroke-linejoin:round;paint-order:stroke fill markers;stroke:none;stroke-opacity:1;fill-opacity:1;stroke-width:1.3;stroke-dasharray:none"
         d="m 76.365234,137.08984 a 1.0585001,1.0585001 0 0 0 -0.748047,0.31055 l -8.716796,8.7168 a 1.0585001,1.0585001 0 0 0 0,1.49609 1.0585001,1.0585001 0 0 0 1.496093,0 l 8.716797,-8.7168 a 1.0585001,1.0585001 0 0 0 0,-1.49609 1.0585001,1.0585001 0 0 0 -0.748047,-0.31055 z"
         id="path6625" />
      <path
         style="color:#000000;fill:url(#linearGradient15489);stroke-linecap:round;stroke-linejoin:round;paint-order:stroke fill markers;stroke:none;stroke-opacity:1;fill-opacity:1;stroke-width:1.3;stroke-dasharray:none"
         d="m 104.59961,108.85547 a 1.0585001,1.0585001 0 0 0 -0.74805,0.31055 l -7.058591,7.05859 a 1.0585001,1.0585001 0 0 0 0,1.49609 1.0585001,1.0585001 0 0 0 1.496093,0 l 7.058598,-7.05859 a 1.0585001,1.0585001 0 0 0 0,-1.49609 1.0585001,1.0585001 0 0 0 -0.74805,-0.31055 z"
         id="path6621" />
      <path
         style="color:#000000;fill:url(#linearGradient15489);stroke-linecap:round;stroke-linejoin:round;paint-order:stroke fill markers;stroke:none;stroke-opacity:1;fill-opacity:1;stroke-width:1.3;stroke-dasharray:none"
         d="m 64.488281,154.42969 a 1.0585001,1.0585001 0 0 0 -0.748047,0.31054 l -8.599609,8.59766 a 1.0585001,1.0585001 0 0 0 0,1.49805 1.0585001,1.0585001 0 0 0 1.496094,0 l 8.599609,-8.59961 a 1.0585001,1.0585001 0 0 0 0,-1.4961 1.0585001,1.0585001 0 0 0 -0.748047,-0.31054 z"
         id="path6615" />
      <path
         style="color:#000000;fill:url(#linearGradient15489);stroke-linecap:round;stroke-linejoin:round;paint-order:stroke fill markers;stroke:none;stroke-opacity:1;fill-opacity:1;stroke-width:1.3;stroke-dasharray:none"
         d="m 76.490234,142.42773 a 1.0585001,1.0585001 0 0 0 -0.75,0.31055 l -8.839843,8.8418 a 1.0585001,1.0585001 0 0 0 0,1.49609 1.0585001,1.0585001 0 0 0 1.496093,0 l 8.841797,-8.8418 a 1.0585001,1.0585001 0 0 0 0,-1.49609 1.0585001,1.0585001 0 0 0 -0.748047,-0.31055 z"
         id="path6611" />
      <path
         style="color:#000000;fill:url(#linearGradient15489);stroke-linecap:round;stroke-linejoin:round;paint-order:stroke fill markers;stroke:none;stroke-opacity:1;fill-opacity:1;stroke-width:1.3;stroke-dasharray:none"
         d="m 107.88086,111.03711 a 1.0585001,1.0585001 0 0 0 -0.74805,0.30859 l -7.05859,7.0586 a 1.0585001,1.0585001 0 0 0 0,1.49804 1.0585001,1.0585001 0 0 0 1.49609,0 l 7.0586,-7.05859 a 1.0585001,1.0585001 0 0 0 0,-1.49805 1.0585001,1.0585001 0 0 0 -0.74805,-0.30859 z"
         id="path6607" />
      <path
         style="color:#000000;fill:url(#linearGradient15489);stroke-linecap:round;stroke-linejoin:round;paint-order:stroke fill markers;stroke:none;stroke-opacity:1;fill-opacity:1;stroke-width:1.3;stroke-dasharray:none"
         d="m 64.505859,159.87305 a 1.0585001,1.0585001 0 0 0 -0.748047,0.31054 l -8.617187,8.61719 a 1.0585001,1.0585001 0 0 0 0,1.49805 1.0585001,1.0585001 0 0 0 1.496094,0 l 8.617187,-8.61719 a 1.0585001,1.0585001 0 0 0 0,-1.49805 1.0585001,1.0585001 0 0 0 -0.748047,-0.31054 z"
         id="path6601" />
      <path
         style="color:#000000;fill:url(#linearGradient15489);stroke-linecap:round;stroke-linejoin:round;paint-order:stroke fill markers;stroke:none;stroke-opacity:1;fill-opacity:1;stroke-width:1.3;stroke-dasharray:none"
         d="m 76.490234,147.89062 a 1.0585001,1.0585001 0 0 0 -0.75,0.31055 l -8.839843,8.83985 a 1.0585001,1.0585001 0 0 0 0,1.49804 1.0585001,1.0585001 0 0 0 1.496093,0 l 8.841797,-8.84179 a 1.0585001,1.0585001 0 0 0 0,-1.4961 1.0585001,1.0585001 0 0 0 -0.748047,-0.31055 z"
         id="path6597" />
      <path
         style="color:#000000;fill:url(#linearGradient15489);stroke-linecap:round;stroke-linejoin:round;paint-order:stroke fill markers;stroke:none;stroke-opacity:1;fill-opacity:1;stroke-width:1.3;stroke-dasharray:none"
         d="m 111.16211,113.2168 a 1.0585001,1.0585001 0 0 0 -0.74805,0.31054 l -8.14843,8.14844 a 1.0585001,1.0585001 0 0 0 0,1.49805 1.0585001,1.0585001 0 0 0 1.49609,0 l 8.15039,-8.15039 a 1.0585001,1.0585001 0 0 0 0,-1.4961 1.0585001,1.0585001 0 0 0 -0.75,-0.31054 z"
         id="path6593" />
      <path
         style="color:#000000;fill:url(#linearGradient15489);stroke-linecap:round;stroke-linejoin:round;paint-order:stroke fill markers;stroke:none;stroke-opacity:1;fill-opacity:1;stroke-width:1.3;stroke-dasharray:none"
         d="m 64.523437,165.31836 a 1.0585001,1.0585001 0 0 0 -0.748046,0.31055 l -8.634766,8.63476 a 1.0585001,1.0585001 0 0 0 0,1.4961 1.0585001,1.0585001 0 0 0 1.496094,0 l 8.634765,-8.63477 a 1.0585001,1.0585001 0 0 0 0,-1.49609 1.0585001,1.0585001 0 0 0 -0.748047,-0.31055 z"
         id="path6587" />
      <path
         style="color:#000000;fill:url(#linearGradient15489);stroke-linecap:round;stroke-linejoin:round;paint-order:stroke fill markers;stroke:none;stroke-opacity:1;fill-opacity:1;stroke-width:1.3;stroke-dasharray:none"
         d="m 76.490234,153.35156 a 1.0585001,1.0585001 0 0 0 -0.75,0.31055 l -8.839843,8.8418 a 1.0585001,1.0585001 0 0 0 0,1.49609 1.0585001,1.0585001 0 0 0 1.496093,0 l 8.841797,-8.83984 a 1.0585001,1.0585001 0 0 0 0,-1.49805 1.0585001,1.0585001 0 0 0 -0.748047,-0.31055 z"
         id="path6583" />
      <path
         style="color:#000000;fill:url(#linearGradient15489);stroke-linecap:round;stroke-linejoin:round;paint-order:stroke fill markers;stroke:none;stroke-opacity:1;fill-opacity:1;stroke-width:1.3;stroke-dasharray:none"
         d="m 114.44531,115.39648 a 1.0585001,1.0585001 0 0 0 -0.75,0.31055 l -11.42968,11.43164 a 1.0585001,1.0585001 0 0 0 0,1.4961 1.0585001,1.0585001 0 0 0 1.49609,0 l 11.43164,-11.43164 a 1.0585001,1.0585001 0 0 0 0,-1.4961 1.0585001,1.0585001 0 0 0 -0.74805,-0.31055 z"
         id="path6579" />
      <path
         style="color:#000000;fill:url(#linearGradient15489);stroke-linecap:round;stroke-linejoin:round;paint-order:stroke fill markers;stroke:none;stroke-opacity:1;fill-opacity:1;stroke-width:1.3;stroke-dasharray:none"
         d="m 64.541016,170.76367 a 1.0585001,1.0585001 0 0 0 -0.748047,0.31055 l -8.652344,8.65039 a 1.0585001,1.0585001 0 0 0 0,1.49805 1.0585001,1.0585001 0 0 0 1.496094,0 l 8.652343,-8.65235 a 1.0585001,1.0585001 0 0 0 0,-1.49609 1.0585001,1.0585001 0 0 0 -0.748046,-0.31055 z"
         id="path6573" />
      <path
         style="color:#000000;fill:url(#linearGradient15489);stroke-linecap:round;stroke-linejoin:round;paint-order:stroke fill markers;stroke:none;stroke-opacity:1;fill-opacity:1;stroke-width:1.3;stroke-dasharray:none"
         d="m 76.490234,158.81445 a 1.0585001,1.0585001 0 0 0 -0.75,0.31055 l -8.839843,8.8418 a 1.0585001,1.0585001 0 0 0 0,1.49609 1.0585001,1.0585001 0 0 0 1.496093,0 l 8.841797,-8.8418 a 1.0585001,1.0585001 0 0 0 0,-1.49609 1.0585001,1.0585001 0 0 0 -0.748047,-0.31055 z"
         id="path6569" />
      <path
         style="color:#000000;fill:url(#linearGradient15489);stroke-linecap:round;stroke-linejoin:round;paint-order:stroke fill markers;stroke:none;stroke-opacity:1;fill-opacity:1;stroke-width:1.3;stroke-dasharray:none"
         d="m 102.26563,132.60156 -8.841802,8.83985 a 1.0585001,1.0585001 0 0 0 0,1.49804 1.0585001,1.0585001 0 0 0 1.496094,0 l 8.841798,-8.84179 a 1.0585001,1.0585001 0 0 0 0,-1.4961 1.0585001,1.0585001 0 0 0 -1.49609,0 z"
         id="path6565" />
      <path
         style="color:#000000;fill:url(#linearGradient15489);stroke-linecap:round;stroke-linejoin:round;paint-order:stroke fill markers;stroke:none;stroke-opacity:1;fill-opacity:1;stroke-width:1.3;stroke-dasharray:none"
         d="m 116.97852,117.88672 -11.75586,11.75586 a 1.0585001,1.0585001 0 0 0 0,1.49609 1.0585001,1.0585001 0 0 0 1.49804,0 l 11.75391,-11.7539 a 1.0585001,1.0585001 0 0 0 0,-1.49805 1.0585001,1.0585001 0 0 0 -1.49609,0 z"
         id="path6561" />
      <path
         style="color:#000000;fill:url(#linearGradient15489);stroke-linecap:round;stroke-linejoin:round;paint-order:stroke fill markers;stroke:none;stroke-opacity:1;fill-opacity:1;stroke-width:1.3;stroke-dasharray:none"
         d="m 64.558594,176.20703 a 1.0585001,1.0585001 0 0 0 -0.748047,0.31055 l -8.669922,8.66992 a 1.0585001,1.0585001 0 0 0 0,1.49805 1.0585001,1.0585001 0 0 0 1.496094,0 l 8.669922,-8.66993 a 1.0585001,1.0585001 0 0 0 0,-1.49804 1.0585001,1.0585001 0 0 0 -0.748047,-0.31055 z"
         id="path6555" />
      <path
         style="color:#000000;fill:url(#linearGradient15489);stroke-linecap:round;stroke-linejoin:round;paint-order:stroke fill markers;stroke:none;stroke-opacity:1;fill-opacity:1;stroke-width:1.3;stroke-dasharray:none"
         d="m 76.490234,164.27734 a 1.0585001,1.0585001 0 0 0 -0.75,0.3086 l -8.839843,8.84179 a 1.0585001,1.0585001 0 0 0 0,1.49805 1.0585001,1.0585001 0 0 0 1.496093,0 l 8.841797,-8.8418 a 1.0585001,1.0585001 0 0 0 0,-1.49804 1.0585001,1.0585001 0 0 0 -0.748047,-0.3086 z"
         id="path6551" />
      <path
         style="color:#000000;fill:url(#linearGradient15489);stroke-linecap:round;stroke-linejoin:round;paint-order:stroke fill markers;stroke:none;stroke-opacity:1;fill-opacity:1;stroke-width:1.3;stroke-dasharray:none"
         d="m 102.26563,138.0625 -8.841802,8.8418 a 1.0585001,1.0585001 0 0 0 0,1.49609 1.0585001,1.0585001 0 0 0 1.496094,0 l 8.841798,-8.83984 a 1.0585001,1.0585001 0 0 0 0,-1.49805 1.0585001,1.0585001 0 0 0 -1.49609,0 z"
         id="path6547" />
      <path
         style="color:#000000;fill:url(#linearGradient15489);stroke-linecap:round;stroke-linejoin:round;paint-order:stroke fill markers;stroke:none;stroke-opacity:1;fill-opacity:1;stroke-width:1.3;stroke-dasharray:none"
         d="m 63.828125,181.96289 -8.6875,8.6875 a 1.0585001,1.0585001 0 0 0 0,1.49609 1.0585001,1.0585001 0 0 0 1.496094,0 l 8.6875,-8.6875 a 1.0585001,1.0585001 0 0 0 0,-1.49609 1.0585001,1.0585001 0 0 0 -1.496094,0 z"
         id="path6541" />
      <path
         style="color:#000000;fill:url(#linearGradient15489);stroke-linecap:round;stroke-linejoin:round;paint-order:stroke fill markers;stroke:none;stroke-opacity:1;fill-opacity:1;stroke-width:1.3;stroke-dasharray:none"
         d="m 75.740234,170.04883 -8.839843,8.84179 a 1.0585001,1.0585001 0 0 0 0,1.4961 1.0585001,1.0585001 0 0 0 1.496093,0 l 8.841797,-8.83985 a 1.0585001,1.0585001 0 0 0 0,-1.49804 1.0585001,1.0585001 0 0 0 -1.498047,0 z"
         id="path6537" />
      <path
         style="color:#000000;fill:url(#linearGradient15489);stroke-linecap:round;stroke-linejoin:round;paint-order:stroke fill markers;stroke:none;stroke-opacity:1;fill-opacity:1;stroke-width:1.3;stroke-dasharray:none"
         d="m 103.01367,143.21484 a 1.0585001,1.0585001 0 0 0 -0.74804,0.31055 l -8.841802,8.8418 a 1.0585001,1.0585001 0 0 0 0,1.49609 1.0585001,1.0585001 0 0 0 1.496094,0 l 8.841798,-8.8418 a 1.0585001,1.0585001 0 0 0 0,-1.49609 1.0585001,1.0585001 0 0 0 -0.74805,-0.31055 z"
         id="path6533" />
      <path
         style="color:#000000;fill:url(#linearGradient15489);stroke-linecap:round;stroke-linejoin:round;paint-order:stroke fill markers;stroke:none;stroke-opacity:1;fill-opacity:1;stroke-width:1.3;stroke-dasharray:none"
         d="m 112.85547,133.37305 a 1.0585001,1.0585001 0 0 0 -0.74805,0.31054 l -4.63476,4.63282 a 1.0585001,1.0585001 0 0 0 0,1.49609 1.0585001,1.0585001 0 0 0 1.49804,0 l 4.63282,-4.63281 a 1.0585001,1.0585001 0 0 0 0,-1.4961 1.0585001,1.0585001 0 0 0 -0.74805,-0.31054 z"
         id="path6529" />
      <path
         style="color:#000000;fill:url(#linearGradient15489);stroke-linecap:round;stroke-linejoin:round;paint-order:stroke fill markers;stroke:none;stroke-opacity:1;fill-opacity:1;stroke-width:1.3;stroke-dasharray:none"
         d="m 64.59375,187.09766 a 1.0585001,1.0585001 0 0 0 -0.748047,0.30859 l -8.705078,8.70508 a 1.0585001,1.0585001 0 0 0 0,1.49804 1.0585001,1.0585001 0 0 0 1.496094,0 l 8.705078,-8.70507 a 1.0585001,1.0585001 0 0 0 0,-1.49805 1.0585001,1.0585001 0 0 0 -0.748047,-0.30859 z"
         id="path6523" />
      <path
         style="color:#000000;fill:url(#linearGradient15489);stroke-linecap:round;stroke-linejoin:round;paint-order:stroke fill markers;stroke:none;stroke-opacity:1;fill-opacity:1;stroke-width:1.3;stroke-dasharray:none"
         d="m 76.490234,175.20117 a 1.0585001,1.0585001 0 0 0 -0.75,0.31055 l -8.839843,8.8418 a 1.0585001,1.0585001 0 0 0 0,1.49609 1.0585001,1.0585001 0 0 0 1.496093,0 l 8.841797,-8.8418 a 1.0585001,1.0585001 0 0 0 0,-1.49609 1.0585001,1.0585001 0 0 0 -0.748047,-0.31055 z"
         id="path6519" />
      <path
         style="color:#000000;fill:url(#linearGradient15489);stroke-linecap:round;stroke-linejoin:round;paint-order:stroke fill markers;stroke:none;stroke-opacity:1;fill-opacity:1;stroke-width:1.3;stroke-dasharray:none"
         d="m 102.26563,148.98633 -8.841802,8.84179 a 1.0585001,1.0585001 0 0 0 0,1.49805 1.0585001,1.0585001 0 0 0 1.496094,0 l 8.841798,-8.8418 a 1.0585001,1.0585001 0 0 0 0,-1.49804 1.0585001,1.0585001 0 0 0 -1.49609,0 z"
         id="path6515" />
      <path
         style="color:#000000;fill:url(#linearGradient15489);stroke-linecap:round;stroke-linejoin:round;paint-order:stroke fill markers;stroke:none;stroke-opacity:1;fill-opacity:1;stroke-width:1.3;stroke-dasharray:none"
         d="m 115.78125,135.4707 -7.28516,7.28516 a 1.0585001,1.0585001 0 0 0 0,1.49805 1.0585001,1.0585001 0 0 0 1.4961,0 l 7.28515,-7.28516 a 1.0585001,1.0585001 0 0 0 0,-1.49805 1.0585001,1.0585001 0 0 0 -1.49609,0 z"
         id="path6511" />
      <path
         style="color:#000000;fill:url(#linearGradient15489);stroke-linecap:round;stroke-linejoin:round;paint-order:stroke fill markers;stroke:none;stroke-opacity:1;fill-opacity:1;stroke-width:1.3;stroke-dasharray:none"
         d="m 64.611328,192.54102 a 1.0585001,1.0585001 0 0 0 -0.748047,0.31054 l -8.722656,8.72266 a 1.0585001,1.0585001 0 0 0 0,1.49609 1.0585001,1.0585001 0 0 0 1.496094,0 l 8.722656,-8.7207 a 1.0585001,1.0585001 0 0 0 0,-1.49805 1.0585001,1.0585001 0 0 0 -0.748047,-0.31054 z"
         id="path6505" />
      <path
         style="color:#000000;fill:url(#linearGradient15489);stroke-linecap:round;stroke-linejoin:round;paint-order:stroke fill markers;stroke:none;stroke-opacity:1;fill-opacity:1;stroke-width:1.3;stroke-dasharray:none"
         d="m 76.490234,180.66406 a 1.0585001,1.0585001 0 0 0 -0.75,0.3086 l -8.839843,8.84179 a 1.0585001,1.0585001 0 0 0 0,1.49805 1.0585001,1.0585001 0 0 0 1.496093,0 l 8.841797,-8.8418 a 1.0585001,1.0585001 0 0 0 0,-1.49804 1.0585001,1.0585001 0 0 0 -0.748047,-0.3086 z"
         id="path6501" />
      <path
         style="color:#000000;fill:url(#linearGradient15489);stroke-linecap:round;stroke-linejoin:round;paint-order:stroke fill markers;stroke:none;stroke-opacity:1;fill-opacity:1;stroke-width:1.3;stroke-dasharray:none"
         d="m 103.01367,154.13867 a 1.0585001,1.0585001 0 0 0 -0.74804,0.31055 l -8.841802,8.8418 a 1.0585001,1.0585001 0 0 0 0,1.49609 1.0585001,1.0585001 0 0 0 1.496094,0 l 8.841798,-8.83984 a 1.0585001,1.0585001 0 0 0 0,-1.49805 1.0585001,1.0585001 0 0 0 -0.74805,-0.31055 z"
         id="path6497" />
      <path
         style="color:#000000;fill:url(#linearGradient15489);stroke-linecap:round;stroke-linejoin:round;paint-order:stroke fill markers;stroke:none;stroke-opacity:1;fill-opacity:1;stroke-width:1.3;stroke-dasharray:none"
         d="m 117.04492,139.66992 -5.10742,5.10742 a 1.0585001,1.0585001 0 0 0 0,1.4961 1.0585001,1.0585001 0 0 0 1.49805,0 l 5.10547,-5.10742 a 1.0585001,1.0585001 0 0 0 0,-1.4961 1.0585001,1.0585001 0 0 0 -1.4961,0 z"
         id="path6493" />
      <path
         style="color:#000000;fill:url(#linearGradient15489);stroke-linecap:round;stroke-linejoin:round;paint-order:stroke fill markers;stroke:none;stroke-opacity:1;fill-opacity:1;stroke-width:1.3;stroke-dasharray:none"
         d="m 63.880859,198.29687 -8.740234,8.74024 a 1.0585001,1.0585001 0 0 0 0,1.49609 1.0585001,1.0585001 0 0 0 1.496094,0 l 8.740234,-8.74023 a 1.0585001,1.0585001 0 0 0 0,-1.4961 1.0585001,1.0585001 0 0 0 -1.496094,0 z"
         id="path6487" />
      <path
         style="color:#000000;fill:url(#linearGradient15489);stroke-linecap:round;stroke-linejoin:round;paint-order:stroke fill markers;stroke:none;stroke-opacity:1;fill-opacity:1;stroke-width:1.3;stroke-dasharray:none"
         d="m 77.667969,184.94727 a 1.0585001,1.0585001 0 0 0 -0.748047,0.30859 l -7.058594,7.05859 a 1.0585001,1.0585001 0 0 0 0,1.49805 1.0585001,1.0585001 0 0 0 1.498047,0 l 7.058594,-7.05859 a 1.0585001,1.0585001 0 0 0 0,-1.49805 1.0585001,1.0585001 0 0 0 -0.75,-0.30859 z"
         id="path6483" />
      <path
         style="color:#000000;fill:url(#linearGradient15489);stroke-linecap:round;stroke-linejoin:round;paint-order:stroke fill markers;stroke:none;stroke-opacity:1;fill-opacity:1;stroke-width:1.3;stroke-dasharray:none"
         d="m 103.01367,159.60156 a 1.0585001,1.0585001 0 0 0 -0.74804,0.31055 l -8.841802,8.8418 a 1.0585001,1.0585001 0 0 0 0,1.49609 1.0585001,1.0585001 0 0 0 1.496094,0 l 8.841798,-8.8418 a 1.0585001,1.0585001 0 0 0 0,-1.49609 1.0585001,1.0585001 0 0 0 -0.74805,-0.31055 z"
         id="path6479" />
      <path
         style="color:#000000;fill:url(#linearGradient15489);stroke-linecap:round;stroke-linejoin:round;paint-order:stroke fill markers;stroke:none;stroke-opacity:1;fill-opacity:1;stroke-width:1.3;stroke-dasharray:none"
         d="m 116.51758,146.09766 a 1.0585001,1.0585001 0 0 0 -0.74805,0.30859 l -8.8418,8.8418 a 1.0585001,1.0585001 0 0 0 0,1.49804 1.0585001,1.0585001 0 0 0 1.49805,0 l 8.83985,-8.84179 a 1.0585001,1.0585001 0 0 0 0,-1.49805 1.0585001,1.0585001 0 0 0 -0.74805,-0.30859 z"
         id="path6475" />
      <path
         style="color:#000000;fill:url(#linearGradient15489);stroke-linecap:round;stroke-linejoin:round;paint-order:stroke fill markers;stroke:none;stroke-opacity:1;fill-opacity:1;stroke-width:1.3;stroke-dasharray:none"
         d="m 65.130859,202.94727 a 1.0585001,1.0585001 0 0 0 -0.75,0.30859 l -6.896484,6.89844 a 1.0585001,1.0585001 0 0 0 0,1.49609 1.0585001,1.0585001 0 0 0 1.498047,0 l 6.896484,-6.89648 a 1.0585001,1.0585001 0 0 0 0,-1.49805 1.0585001,1.0585001 0 0 0 -0.748047,-0.30859 z"
         id="path6469" />
      <path
         style="color:#000000;fill:url(#linearGradient15489);stroke-linecap:round;stroke-linejoin:round;paint-order:stroke fill markers;stroke:none;stroke-opacity:1;fill-opacity:1;stroke-width:1.3;stroke-dasharray:none"
         d="m 80.201172,187.4375 -7.058594,7.05664 a 1.0585001,1.0585001 0 0 0 0,1.49805 1.0585001,1.0585001 0 0 0 1.498047,0 l 7.058594,-7.0586 a 1.0585001,1.0585001 0 0 0 0,-1.49609 1.0585001,1.0585001 0 0 0 -1.498047,0 z"
         id="path6465" />
      <path
         style="color:#000000;fill:url(#linearGradient15489);stroke-linecap:round;stroke-linejoin:round;paint-order:stroke fill markers;stroke:none;stroke-opacity:1;fill-opacity:1;stroke-width:1.3;stroke-dasharray:none"
         d="m 103.01367,165.06445 a 1.0585001,1.0585001 0 0 0 -0.74804,0.3086 l -8.841802,8.84179 a 1.0585001,1.0585001 0 0 0 0,1.49805 1.0585001,1.0585001 0 0 0 1.496094,0 l 8.841798,-8.8418 a 1.0585001,1.0585001 0 0 0 0,-1.49804 1.0585001,1.0585001 0 0 0 -0.74805,-0.3086 z"
         id="path6461" />
      <path
         style="color:#000000;fill:url(#linearGradient15489);stroke-linecap:round;stroke-linejoin:round;paint-order:stroke fill markers;stroke:none;stroke-opacity:1;fill-opacity:1;stroke-width:1.3;stroke-dasharray:none"
         d="m 68.714844,204.82422 a 1.0585001,1.0585001 0 0 0 -0.748047,0.31055 l -7.001953,7.00195 a 1.0585001,1.0585001 0 0 0 0,1.49609 1.0585001,1.0585001 0 0 0 1.496093,0 l 7.001954,-7.00195 a 1.0585001,1.0585001 0 0 0 0,-1.49609 1.0585001,1.0585001 0 0 0 -0.748047,-0.31055 z"
         id="path6451" />
      <path
         style="color:#000000;fill:url(#linearGradient15489);stroke-linecap:round;stroke-linejoin:round;paint-order:stroke fill markers;stroke:none;stroke-opacity:1;fill-opacity:1;stroke-width:1.3;stroke-dasharray:none"
         d="m 84.232422,189.30664 a 1.0585001,1.0585001 0 0 0 -0.748047,0.31055 l -6.603516,6.60351 a 1.0585001,1.0585001 0 0 0 0,1.4961 1.0585001,1.0585001 0 0 0 1.496094,0 l 6.603516,-6.60157 a 1.0585001,1.0585001 0 0 0 0,-1.49804 1.0585001,1.0585001 0 0 0 -0.748047,-0.31055 z"
         id="path6447" />
      <path
         style="color:#000000;fill:url(#linearGradient15489);stroke-linecap:round;stroke-linejoin:round;paint-order:stroke fill markers;stroke:none;stroke-opacity:1;fill-opacity:1;stroke-width:1.3;stroke-dasharray:none"
         d="m 103.01367,170.52539 a 1.0585001,1.0585001 0 0 0 -0.74804,0.31055 l -8.841802,8.84179 a 1.0585001,1.0585001 0 0 0 0,1.4961 1.0585001,1.0585001 0 0 0 1.496094,0 l 8.841798,-8.8418 a 1.0585001,1.0585001 0 0 0 0,-1.49609 1.0585001,1.0585001 0 0 0 -0.74805,-0.31055 z"
         id="path6443" />
      <path
         style="color:#000000;fill:url(#linearGradient15489);stroke-linecap:round;stroke-linejoin:round;paint-order:stroke fill markers;stroke:none;stroke-opacity:1;fill-opacity:1;stroke-width:1.3;stroke-dasharray:none"
         d="m 116.51758,157.02148 a 1.0585001,1.0585001 0 0 0 -0.74805,0.31055 l -8.8418,8.83984 a 1.0585001,1.0585001 0 0 0 0,1.49805 1.0585001,1.0585001 0 0 0 1.49805,0 l 8.83985,-8.8418 a 1.0585001,1.0585001 0 0 0 0,-1.49609 1.0585001,1.0585001 0 0 0 -0.74805,-0.31055 z"
         id="path6439" />
      <path
         style="color:#000000;fill:url(#linearGradient15489);stroke-linecap:round;stroke-linejoin:round;paint-order:stroke fill markers;stroke:none;stroke-opacity:1;fill-opacity:1;stroke-width:1.3;stroke-dasharray:none"
         d="m 71.548828,207.01367 -7.103516,7.10547 a 1.0585001,1.0585001 0 0 0 0,1.49609 1.0585001,1.0585001 0 0 0 1.496094,0 l 7.105469,-7.10546 a 1.0585001,1.0585001 0 0 0 0,-1.4961 1.0585001,1.0585001 0 0 0 -1.498047,0 z"
         id="path6433" />
      <path
         style="color:#000000;fill:url(#linearGradient15489);stroke-linecap:round;stroke-linejoin:round;paint-order:stroke fill markers;stroke:none;stroke-opacity:1;fill-opacity:1;stroke-width:1.3;stroke-dasharray:none"
         d="M 102.26563,176.29883 82.341797,196.2207 a 1.0585001,1.0585001 0 0 0 0,1.4961 1.0585001,1.0585001 0 0 0 1.498047,0 l 19.921876,-19.92188 a 1.0585001,1.0585001 0 0 0 0,-1.49609 1.0585001,1.0585001 0 0 0 -1.49609,0 z"
         id="path6429" />
      <path
         style="color:#000000;fill:url(#linearGradient15489);stroke-linecap:round;stroke-linejoin:round;paint-order:stroke fill markers;stroke:none;stroke-opacity:1;fill-opacity:1;stroke-width:1.3;stroke-dasharray:none"
         d="m 116.51758,162.48437 a 1.0585001,1.0585001 0 0 0 -0.74805,0.3086 l -8.8418,8.8418 a 1.0585001,1.0585001 0 0 0 0,1.49804 1.0585001,1.0585001 0 0 0 1.49805,0 l 8.83985,-8.84179 a 1.0585001,1.0585001 0 0 0 0,-1.49805 1.0585001,1.0585001 0 0 0 -0.74805,-0.3086 z"
         id="path6425" />
      <path
         style="color:#000000;fill:url(#linearGradient15489);stroke-linecap:round;stroke-linejoin:round;paint-order:stroke fill markers;stroke:none;stroke-opacity:1;fill-opacity:1;stroke-width:1.3;stroke-dasharray:none"
         d="m 75.134766,208.89062 -7.210938,7.21094 a 1.0585001,1.0585001 0 0 0 0,1.4961 1.0585001,1.0585001 0 0 0 1.498047,0 l 7.208984,-7.20899 a 1.0585001,1.0585001 0 0 0 0,-1.49805 1.0585001,1.0585001 0 0 0 -1.496093,0 z"
         id="path6419" />
      <path
         style="color:#000000;fill:url(#linearGradient15489);stroke-linecap:round;stroke-linejoin:round;paint-order:stroke fill markers;stroke:none;stroke-opacity:1;fill-opacity:1;stroke-width:1.3;stroke-dasharray:none"
         d="M 102.26563,181.75977 87.804687,196.2207 a 1.0585001,1.0585001 0 0 0 0,1.4961 1.0585001,1.0585001 0 0 0 1.496094,0 l 14.460939,-14.45899 a 1.0585001,1.0585001 0 0 0 0,-1.49804 1.0585001,1.0585001 0 0 0 -1.49609,0 z"
         id="path6415" />
      <path
         style="color:#000000;fill:url(#linearGradient15489);stroke-linecap:round;stroke-linejoin:round;paint-order:stroke fill markers;stroke:none;stroke-opacity:1;fill-opacity:1;stroke-width:1.3;stroke-dasharray:none"
         d="m 116.51758,167.94531 a 1.0585001,1.0585001 0 0 0 -0.74805,0.31055 l -8.8418,8.8418 a 1.0585001,1.0585001 0 0 0 0,1.49609 1.0585001,1.0585001 0 0 0 1.49805,0 l 8.83985,-8.8418 a 1.0585001,1.0585001 0 0 0 0,-1.49609 1.0585001,1.0585001 0 0 0 -0.74805,-0.31055 z"
         id="path6411" />
      <path
         style="color:#000000;fill:url(#linearGradient15489);stroke-linecap:round;stroke-linejoin:round;paint-order:stroke fill markers;stroke:none;stroke-opacity:1;fill-opacity:1;stroke-width:1.3;stroke-dasharray:none"
         d="m 79.466797,210.45898 a 1.0585001,1.0585001 0 0 0 -0.748047,0.31055 l -7.314453,7.31445 a 1.0585001,1.0585001 0 0 0 0,1.4961 1.0585001,1.0585001 0 0 0 1.496094,0 l 7.314453,-7.31446 a 1.0585001,1.0585001 0 0 0 0,-1.49609 1.0585001,1.0585001 0 0 0 -0.748047,-0.31055 z"
         id="path6405" />
      <path
         style="color:#000000;fill:url(#linearGradient15489);stroke-linecap:round;stroke-linejoin:round;paint-order:stroke fill markers;stroke:none;stroke-opacity:1;fill-opacity:1;stroke-width:1.3;stroke-dasharray:none"
         d="m 103.01367,186.91211 a 1.0585001,1.0585001 0 0 0 -0.74804,0.31055 l -8.998052,8.99804 a 1.0585001,1.0585001 0 0 0 0,1.4961 1.0585001,1.0585001 0 0 0 1.496094,0 l 8.998048,-8.99805 a 1.0585001,1.0585001 0 0 0 0,-1.49609 1.0585001,1.0585001 0 0 0 -0.74805,-0.31055 z"
         id="path6401" />
      <path
         style="color:#000000;fill:url(#linearGradient15489);stroke-linecap:round;stroke-linejoin:round;paint-order:stroke fill markers;stroke:none;stroke-opacity:1;fill-opacity:1;stroke-width:1.3;stroke-dasharray:none"
         d="m 116.51758,173.4082 a 1.0585001,1.0585001 0 0 0 -0.74805,0.31055 l -8.8418,8.83984 a 1.0585001,1.0585001 0 0 0 0,1.49805 1.0585001,1.0585001 0 0 0 1.49805,0 l 8.83985,-8.8418 a 1.0585001,1.0585001 0 0 0 0,-1.49609 1.0585001,1.0585001 0 0 0 -0.74805,-0.31055 z"
         id="path6397" />
      <path
         style="color:#000000;fill:url(#linearGradient15489);stroke-linecap:round;stroke-linejoin:round;paint-order:stroke fill markers;stroke:none;stroke-opacity:1;fill-opacity:1;stroke-width:1.3;stroke-dasharray:none"
         d="m 83.050781,212.33789 a 1.0585001,1.0585001 0 0 0 -0.748047,0.30859 l -7.417968,7.41993 a 1.0585001,1.0585001 0 0 0 0,1.49609 1.0585001,1.0585001 0 0 0 1.496093,0 l 7.417969,-7.41797 a 1.0585001,1.0585001 0 0 0 0,-1.49805 1.0585001,1.0585001 0 0 0 -0.748047,-0.30859 z"
         id="path6391" />
      <path
         style="color:#000000;fill:url(#linearGradient15489);stroke-linecap:round;stroke-linejoin:round;paint-order:stroke fill markers;stroke:none;stroke-opacity:1;fill-opacity:1;stroke-width:1.3;stroke-dasharray:none"
         d="m 103.66992,191.2793 -1.40429,1.40625 a 1.0585001,1.0585001 0 0 0 0,1.49609 1.0585001,1.0585001 0 0 0 1.49609,0 l 1.4043,-1.4043 a 1.0585001,1.0585001 0 0 0 0,-1.49804 1.0585001,1.0585001 0 0 0 -1.4961,0 z"
         id="path6387" />
      <path
         style="color:#000000;fill:url(#linearGradient15489);stroke-linecap:round;stroke-linejoin:round;paint-order:stroke fill markers;stroke:none;stroke-opacity:1;fill-opacity:1;stroke-width:1.3;stroke-dasharray:none"
         d="m 116.51758,178.87109 a 1.0585001,1.0585001 0 0 0 -0.74805,0.3086 l -3.49219,3.49218 a 1.0585001,1.0585001 0 0 0 0,1.49805 1.0585001,1.0585001 0 0 0 1.4961,0 l 3.49219,-3.49219 a 1.0585001,1.0585001 0 0 0 0,-1.49804 1.0585001,1.0585001 0 0 0 -0.74805,-0.3086 z"
         id="path6383" />
      <path
         style="color:#000000;fill:url(#linearGradient15489);stroke-linecap:round;stroke-linejoin:round;paint-order:stroke fill markers;stroke:none;stroke-opacity:1;fill-opacity:1;stroke-width:1.3;stroke-dasharray:none"
         d="m 91.251953,209.59766 a 1.0585001,1.0585001 0 0 0 -0.748047,0.31054 l -12.140625,12.14063 a 1.0585001,1.0585001 0 0 0 0,1.49609 1.0585001,1.0585001 0 0 0 1.498047,0 L 92,211.4043 a 1.0585001,1.0585001 0 0 0 0,-1.4961 1.0585001,1.0585001 0 0 0 -0.748047,-0.31054 z"
         id="path6377" />
      <path
         style="color:#000000;fill:url(#linearGradient15489);stroke-linecap:round;stroke-linejoin:round;paint-order:stroke fill markers;stroke:none;stroke-opacity:1;fill-opacity:1;stroke-width:1.3;stroke-dasharray:none"
         d="m 107.69922,193.15039 a 1.0585001,1.0585001 0 0 0 -0.74805,0.31055 l -4.68554,4.68554 a 1.0585001,1.0585001 0 0 0 0,1.49805 1.0585001,1.0585001 0 0 0 1.49609,0 l 4.68555,-4.6875 a 1.0585001,1.0585001 0 0 0 0.002,-1.49609 1.0585001,1.0585001 0 0 0 -0.75,-0.31055 z"
         id="path6373" />
      <path
         style="color:#000000;fill:url(#linearGradient15489);stroke-linecap:round;stroke-linejoin:round;paint-order:stroke fill markers;stroke:none;stroke-opacity:1;fill-opacity:1;stroke-width:1.3;stroke-dasharray:none"
         d="M 110.23242,195.64062 81.84375,224.0293 a 1.0585001,1.0585001 0 0 0 0,1.49804 1.0585001,1.0585001 0 0 0 1.496094,0 l 28.390626,-28.39062 a 1.0585001,1.0585001 0 0 0 0,-1.4961 1.0585001,1.0585001 0 0 0 -1.49805,0 z"
         id="path6367" />
      <path
         style="color:#000000;fill:url(#linearGradient15489);stroke-linecap:round;stroke-linejoin:round;paint-order:stroke fill markers;stroke:none;stroke-opacity:1;fill-opacity:1;stroke-width:1.3;stroke-dasharray:none"
         d="m 113.51563,197.82031 -25.466802,25.4668 a 1.0585001,1.0585001 0 0 0 0,1.49609 1.0585001,1.0585001 0 0 0 1.498047,0 l 25.464845,-25.46484 a 1.0585001,1.0585001 0 0 0 0,-1.49805 1.0585001,1.0585001 0 0 0 -1.49609,0 z"
         id="path6361" />
      <path
         style="color:#000000;fill:url(#linearGradient15489);stroke-linecap:round;stroke-linejoin:round;paint-order:stroke fill markers;stroke:none;stroke-opacity:1;fill-opacity:1;stroke-width:1.3;stroke-dasharray:none"
         d="m 117.54492,199.69141 a 1.0585001,1.0585001 0 0 0 -0.74804,0.31054 l -12.47266,12.47266 a 1.0585001,1.0585001 0 0 0 0,1.49609 1.0585001,1.0585001 0 0 0 1.49609,0 l 12.47266,-12.47265 a 1.0585001,1.0585001 0 0 0 0,-1.4961 1.0585001,1.0585001 0 0 0 -0.74805,-0.31054 z"
         id="path6355" />
    </g>
  </g>
</svg>
