<?xml version="1.0" encoding="UTF-8" standalone="no"?>
<!-- Created with Inkscape (http://www.inkscape.org/) -->

<svg
   width="210mm"
   height="297mm"
   viewBox="0 0 210 297"
   version="1.1"
   id="svg5"
   sodipodi:docname="crypto_currency.svg"
   inkscape:export-filename="crypto_currency.svg"
   inkscape:export-xdpi="96"
   inkscape:export-ydpi="96"
   inkscape:version="1.2.2 (b0a8486, 2022-12-01)"
   xmlns:inkscape="http://www.inkscape.org/namespaces/inkscape"
   xmlns:sodipodi="http://sodipodi.sourceforge.net/DTD/sodipodi-0.dtd"
   xmlns="http://www.w3.org/2000/svg"
   xmlns:svg="http://www.w3.org/2000/svg">
  <sodipodi:namedview
     id="namedview19851"
     pagecolor="#ffffff"
     bordercolor="#000000"
     borderopacity="0.25"
     inkscape:showpageshadow="2"
     inkscape:pageopacity="0.0"
     inkscape:pagecheckerboard="0"
     inkscape:deskcolor="#d1d1d1"
     inkscape:document-units="mm"
     showgrid="false"
     inkscape:zoom="0.63150476"
     inkscape:cx="240.69494"
     inkscape:cy="721.29306"
     inkscape:window-width="1920"
     inkscape:window-height="1027"
     inkscape:window-x="1920"
     inkscape:window-y="62"
     inkscape:window-maximized="1"
     inkscape:current-layer="svg5" />
  <defs
     id="defs2">
    <inkscape:path-effect
       effect="clone_original"
       linkeditem="#path21885"
       method="bsplinespiro"
       allow_transforms="false"
       id="path-effect21891"
       lpeversion="1" />
    <mask
       maskUnits="userSpaceOnUse"
       id="mask-powermask-path-effect7060">
      <path
         id="mask-powermask-path-effect7060_box"
         style="fill:#ffffff;fill-opacity:1"
         d="M 33.273566,68.878585 H 118.0787 V 153.68372 H 33.273566 Z" />
      <path
         style="fill:#000000;fill-opacity:1;stroke:none;stroke-width:0.00871199;stroke-dasharray:none;stroke-opacity:1"
         d="m 119.64786,116.00797 -23.759976,5.0826 -0.209341,-19.61884 24.073987,5.08259 z"
         id="path7058" />
    </mask>
    <mask
       maskUnits="userSpaceOnUse"
       id="mask-powermask-path-effect7060-8">
      <path
         id="mask-powermask-path-effect7060-8_box"
         style="fill:#ffffff;fill-opacity:1"
         d="M 33.273566,68.878585 H 118.0787 V 153.68372 H 33.273566 Z" />
      <path
         id="path7452"
         style="fill:#ffffff;fill-opacity:1"
         d="M 33.273566,68.878585 H 118.0787 V 153.68372 H 33.273566 Z" />
      <path
         style="fill:#000000;fill-opacity:1;stroke:none;stroke-width:0.00871199;stroke-dasharray:none;stroke-opacity:1"
         d="m 119.64786,116.00797 -23.759976,5.0826 -0.209341,-19.61884 24.073987,5.08259 z"
         id="path7454" />
    </mask>
    <mask
       maskUnits="userSpaceOnUse"
       id="mask-powermask-path-effect10671">
      <path
         id="mask-powermask-path-effect10671_box"
         style="fill:#ffffff;fill-opacity:1"
         d="m 69.334578,52.917456 h 10.85256 V 168.55326 h -10.85256 z" />
      <circle
         style="opacity:1;fill:#141923;fill-opacity:1;stroke:#000000;stroke-width:0.00778071;stroke-dasharray:none;stroke-opacity:0.966165"
         id="circle10669"
         cx="74.760857"
         cy="110.73536"
         r="4.4223924" />
    </mask>
    <mask
       maskUnits="userSpaceOnUse"
       id="mask-powermask-path-effect7060-8-0">
      <path
         id="mask-powermask-path-effect7060-8-0_box"
         style="fill:#ffffff;fill-opacity:1"
         d="M 66.838511,68.878585 H 84.513754 V 153.68372 H 66.838511 Z" />
      <path
         id="mask-powermask-path-effect7060-8_box-1"
         style="fill:#ffffff;fill-opacity:1"
         d="M 33.273566,68.878585 H 118.0787 V 153.68372 H 33.273566 Z" />
      <path
         id="path7452-87"
         style="fill:#ffffff;fill-opacity:1"
         d="M 33.273566,68.878585 H 118.0787 V 153.68372 H 33.273566 Z" />
      <path
         style="fill:#000000;fill-opacity:1;stroke:none;stroke-width:0.00871199;stroke-dasharray:none;stroke-opacity:1"
         d="m 119.64786,116.00797 -23.759976,5.0826 -0.209341,-19.61884 24.073987,5.08259 z"
         id="path7454-6" />
    </mask>
    <mask
       maskUnits="userSpaceOnUse"
       id="mask-powermask-path-effect10671-28">
      <path
         id="mask-powermask-path-effect10671-28_box"
         style="fill:#ffffff;fill-opacity:1"
         d="m 69.334578,52.917456 h 10.85256 V 168.55326 h -10.85256 z" />
      <path
         id="path11035"
         style="fill:#ffffff;fill-opacity:1"
         d="m 69.334578,52.917456 h 10.85256 V 168.55326 h -10.85256 z" />
      <circle
         style="opacity:1;fill:#141923;fill-opacity:1;stroke:#000000;stroke-width:0.00778071;stroke-dasharray:none;stroke-opacity:0.966165"
         id="circle11037"
         cx="74.760857"
         cy="110.73536"
         r="4.4223924" />
    </mask>
    <clipPath
       clipPathUnits="userSpaceOnUse"
       id="clipPath11056">
      <g
         id="g11060"
         transform="matrix(1.7724682,0,0,1.7724682,-56.835111,-84.993753)">
        <path
           style="opacity:1;fill:#045de8;fill-opacity:1;stroke:#4cb23a;stroke-width:0.0088223;stroke-dasharray:none;stroke-opacity:0.966165"
           id="path11058"
           width="8.8437376"
           height="113.62698"
           x="70.338989"
           y="53.921867"
           mask="url(#mask-powermask-path-effect10671-28)"
           d="m 70.338989,53.921867 h 8.843738 V 167.54885 h -8.843738 z" />
      </g>
    </clipPath>
    <mask
       maskUnits="userSpaceOnUse"
       id="mask-powermask-path-effect14381">
      <path
         id="mask-powermask-path-effect14381_box"
         style="fill:#ffffff;fill-opacity:1"
         d="M 25.23359,35.416841 H 161.08124 V 171.26449 H 25.23359 Z" />
      <g
         id="g14371"
         style="">
        <path
           style="fill:#000000;fill-opacity:0;stroke:#000000;stroke-width:12.365;stroke-dasharray:none;stroke-opacity:1"
           id="path14361"
           mask="url(#mask-powermask-path-effect7060)"
           d="M 110.8962,111.28115 A 35.220066,35.220066 0 0 1 75.676132,146.50122 35.220066,35.220066 0 0 1 40.456066,111.28115 35.220066,35.220066 0 0 1 75.676132,76.061085 35.220066,35.220066 0 0 1 110.8962,111.28115 Z"
           transform="translate(17.481285,-7.940487)" />
        <path
           style="fill:#000000;fill-opacity:0;stroke:#000000;stroke-width:12.365;stroke-dasharray:none;stroke-opacity:1"
           id="path14363"
           mask="url(#mask-powermask-path-effect7060-8)"
           transform="matrix(0.56418502,0,0,0.56418502,50.462076,40.557506)"
           d="M 110.8962,111.28115 A 35.220066,35.220066 0 0 1 75.676132,146.50122 35.220066,35.220066 0 0 1 40.456066,111.28115 35.220066,35.220066 0 0 1 75.676132,76.061085 35.220066,35.220066 0 0 1 110.8962,111.28115 Z" />
        <g
           id="g14367"
           style="fill:#000000;fill-opacity:1"
           transform="translate(18.396559,-7.3946954)">
          <path
             style="opacity:1;fill:#000000;fill-opacity:1;stroke:#4cb23a;stroke-width:0.0088223;stroke-dasharray:none;stroke-opacity:0.966165"
             id="path14365"
             width="8.8437376"
             height="113.62698"
             x="70.338989"
             y="53.921867"
             mask="url(#mask-powermask-path-effect10671)"
             d="m 70.338989,53.921867 h 8.843738 V 167.54885 h -8.843738 z" />
        </g>
        <path
           style="fill:#000000;fill-opacity:0;stroke:#ffffff;stroke-width:12.365;stroke-dasharray:none;stroke-opacity:1"
           id="path14369"
           mask="url(#mask-powermask-path-effect7060-8-0)"
           transform="matrix(0.56418502,0,0,0.56418502,50.462076,40.557506)"
           d="M 110.8962,111.28115 A 35.220066,35.220066 0 0 1 75.676132,146.50122 35.220066,35.220066 0 0 1 40.456066,111.28115 35.220066,35.220066 0 0 1 75.676132,76.061085 35.220066,35.220066 0 0 1 110.8962,111.28115 Z"
           clip-path="url(#clipPath11056)" />
      </g>
    </mask>
    <inkscape:path-effect
       effect="fill_between_many"
       method="originald"
       linkedpaths="#path405,0,1"
       id="path-effect407" />
  </defs>
  <path
     id="path6516"
     style="fill:#75bbe3;fill-opacity:1;stroke:#4b5f58;stroke-width:0;stroke-dasharray:none;stroke-opacity:1"
     d="M 100.74941 153.99887 A 67.071228 67.071228 0 0 0 33.678048 221.06971 A 67.071228 67.071228 0 0 0 100.74941 288.14107 A 67.071228 67.071228 0 0 0 167.82076 221.06971 A 67.071228 67.071228 0 0 0 100.74941 153.99887 z M 97.169779 158.93759 L 104.57605 158.93759 L 104.57605 168.8977 C 104.6151 168.90024 104.6543 168.90075 104.69335 168.90339 C 127.96679 170.10368 148.82989 188.73292 152.61394 211.73436 C 147.44405 212.67251 142.27421 213.61051 137.10429 214.54866 C 136.10954 209.02583 133.82976 203.73715 130.47421 199.23745 C 124.46393 190.83603 114.71173 185.74705 104.57605 184.73808 L 104.57605 194.72196 C 115.70113 196.16554 125.34491 205.12486 127.20877 216.32995 C 124.68932 216.78661 122.17004 217.24323 119.65058 217.69989 C 118.26486 213.69373 115.96319 208.4295 111.72238 205.86392 C 109.57821 204.26785 107.12475 203.27659 104.57605 202.82793 L 104.57605 220.04238 C 104.583 220.08219 104.59067 220.12179 104.59517 220.16227 C 104.62219 220.35378 104.61829 220.54898 104.57605 220.74622 L 104.57605 220.07236 C 104.39926 219.16661 103.51012 218.36072 102.4015 217.89264 C 100.40872 217.16175 97.721427 217.58746 97.24316 220.05737 C 97.190063 220.36358 97.164117 220.70028 97.169779 221.07023 L 97.169779 203.00001 C 91.684963 204.19409 86.700671 207.70482 84.361776 213.00974 C 79.345597 222.70847 84.992968 235.87738 95.553857 238.78387 C 96.0878 238.96767 96.62751 239.11549 97.169779 239.24121 L 97.169779 222.12443 C 97.126622 221.8912 97.12081 221.64771 97.169779 221.39372 L 97.169779 222.09755 C 97.682193 225.0304 104.77062 226.1033 104.57605 221.07023 L 104.57605 239.29392 C 111.82227 237.79341 118.20185 231.95737 119.33018 224.39457 C 121.95518 224.87309 124.58016 225.35162 127.20516 225.83014 C 125.38804 236.96878 115.65237 245.99633 104.57605 247.42572 L 104.57605 257.46335 C 120.42363 256.16581 134.54876 243.41652 137.09861 227.61711 C 142.2685 228.55982 147.43834 229.50266 152.60826 230.44537 C 150.16785 244.23392 141.84526 256.81613 130.17862 264.54199 C 122.61217 269.76843 113.67004 272.63751 104.57605 273.204 L 104.57605 283.20235 L 97.169779 283.20235 L 97.169779 273.1642 C 86.950413 272.39441 76.957301 268.71386 68.93016 262.17366 C 52.063804 249.32966 44.682231 225.7023 51.244417 205.55696 C 57.219823 185.46053 76.36834 170.39015 97.169779 168.91114 L 97.169779 158.93759 z M 97.169779 184.73394 C 93.066995 185.14877 89.034798 186.26202 85.297119 188.13425 C 70.139529 195.07144 61.56135 213.20571 65.581527 229.34672 C 68.707941 244.24497 82.187598 255.87339 97.169779 257.43132 L 97.169779 247.38025 C 84.66968 245.56482 74.233452 233.90332 74.537052 221.07023 C 74.233472 208.2376 84.670303 196.58456 97.169779 194.76847 L 97.169779 184.73394 z " />
  <path
     id="path4452-8-3"
     style="fill:none;fill-opacity:0;stroke:#bb5151;stroke-width:8.00465;stroke-dasharray:none;stroke-opacity:1"
     d="m 130.82781,59.727972 a 22.546462,22.546462 0 0 1 18.69338,18.248676" />
  <path
     id="path4859"
     style="fill:none;fill-opacity:0;stroke:#bb5151;stroke-width:8.00465;stroke-dasharray:none;stroke-opacity:1"
     d="M 96.771022,100.89457 A 22.546462,22.546462 0 0 1 78.143532,78.691304 22.546462,22.546462 0 0 1 96.771022,56.488049" />
  <path
     id="path4855"
     style="fill:none;fill-opacity:0;stroke:#bb5151;stroke-width:8.00465;stroke-dasharray:none;stroke-opacity:1"
     d="M 224.88177,92.872891 A 22.546462,22.546462 0 0 1 206.19172,111.10486" />
  <g
     id="g21000"
     clip-path="none"
     transform="translate(-119.51146,-102.52002)"
     style="display:inline"
     mask="none">
    <g
       inkscape:label="Clip"
       id="g20998">
      <path
         id="path13967"
         mask="url(#mask-powermask-path-effect14381)"
         style="fill:#0065a6;fill-opacity:1;stroke:#000000;stroke-width:0.0093212;stroke-dasharray:none;stroke-opacity:1"
         d="m 160.07658,103.34067 c 1.30403,26.10954 -16.48606,50.33636 -39.74351,60.85519 -16.72298,7.95399 -36.97362,8.70681 -53.788444,0.59126 C 41.463929,155.26949 26.181687,128.28719 26.428947,102.0976 26.234082,84.245868 33.741428,66.433775 47.199769,54.59387 66.924129,34.363873 99.950559,31.496104 124.48598,44.22152 c 21.92319,10.768086 35.64415,34.957018 35.5906,59.11915 z"
         transform="translate(8.24836,38.067488)"
         sodipodi:nodetypes="ccccccc" />
    </g>
    <path
       id="path3924"
       mask="none"
       style="fill:#0065a6;fill-opacity:1;stroke:#000000;stroke-width:0.0093212;stroke-dasharray:none;stroke-opacity:1"
       d="m -65.44628,175.17638 c 1.30403,26.10954 -16.48606,50.33636 -39.74351,60.85519 -16.72298,7.95399 -36.97362,8.70681 -53.78844,0.59126 -25.0807,-9.51763 -40.36294,-36.49993 -40.11568,-62.68952 -0.19487,-17.85173 7.31248,-35.66383 20.77082,-47.50373 19.72436,-20.23 52.75079,-23.09777 77.28621,-10.37235 21.92319,10.76808 35.64415,34.95702 35.5906,59.11915 z"
       sodipodi:nodetypes="ccccccc" />
    <path
       id="path3940"
       style="fill:#ffffff;fill-opacity:1"
       d="M -200.28927,107.25255 H -64.44162 V 243.1002 h -135.84765 z"
       inkscape:label="path3940" />
    <path
       style="fill:#000000;fill-opacity:0;stroke:#000000;stroke-width:12.365;stroke-dasharray:none;stroke-opacity:1"
       id="path3928"
       mask="none"
       d="m -97.14538,175.17637 a 35.220066,35.220066 0 0 1 -35.22007,35.22007 35.220066,35.220066 0 0 1 -35.22006,-35.22007 35.220066,35.220066 0 0 1 35.22006,-35.22006 35.220066,35.220066 0 0 1 35.22007,35.22006 z" />
    <path
       id="path3944"
       style="fill:#ffffff;fill-opacity:1"
       d="m -174.76801,132.77381 h 84.80513 v 84.80513 h -84.80513 z" />
    <path
       style="fill:#000000;fill-opacity:0;stroke:#000000;stroke-width:6.97615;stroke-dasharray:none;stroke-opacity:1"
       id="path3930"
       mask="none"
       d="m -112.49481,175.17637 a 19.870634,19.870634 0 0 1 -19.87063,19.87063 19.870634,19.870634 0 0 1 -19.87063,-19.87063 19.870634,19.870634 0 0 1 19.87063,-19.87064 19.870634,19.870634 0 0 1 19.87063,19.87064 z" />
    <path
       id="path3950"
       style="fill:#262926;fill-opacity:0.397638;stroke:none;stroke-width:0.564;stroke-dasharray:none;stroke-opacity:1"
       d="m -156.28834,151.25348 h 47.84579 v 47.84579 h -47.84579 z"
       inkscape:label="path3950" />
    <path
       id="path3948"
       style="fill:#ffffff;fill-opacity:1;stroke-width:0.564185"
       d="m -156.28834,151.25348 h 47.84579 v 47.84579 h -47.84579 z" />
    <path
       style="fill:#000000;fill-opacity:1;stroke:none;stroke-width:0.00491517;stroke-dasharray:none;stroke-opacity:1"
       d="m -107.55725,177.84317 -13.40503,2.86753 -0.1181,-11.06865 13.58218,2.86752 z"
       id="path3946" />
    <path
       style="fill:#000000;fill-opacity:1;stroke:#4cb23a;stroke-width:0.0088223;stroke-dasharray:none;stroke-opacity:0.966165"
       id="path3932"
       width="8.8437376"
       height="113.62698"
       x="70.338989"
       y="53.921867"
       mask="none"
       d="m 70.338989,53.921867 h 8.843738 V 167.54885 h -8.843738 z"
       transform="translate(-207.1263,64.441014)" />
    <path
       id="path4375"
       style="fill:#ffffff;fill-opacity:1"
       d="m -137.79172,117.35847 h 10.85256 v 115.6358 h -10.85256 z" />
    <circle
       style="opacity:1;fill:#141923;fill-opacity:1;stroke:#000000;stroke-width:0.00778071;stroke-dasharray:none;stroke-opacity:0.966165"
       id="circle4373"
       cx="-132.36545"
       cy="175.17638"
       r="4.4223924"
       inkscape:label="circle4373" />
    <path
       style="fill:#000000;fill-opacity:0;stroke:#ffffff;stroke-width:12.365;stroke-dasharray:none;stroke-opacity:1"
       id="path3936"
       mask="none"
       transform="matrix(0.56418502,0,0,0.56418502,-175.06078,112.39321)"
       d="M 110.8962,111.28115 A 35.220066,35.220066 0 0 1 75.676132,146.50122 35.220066,35.220066 0 0 1 40.456066,111.28115 35.220066,35.220066 0 0 1 75.676132,76.061085 35.220066,35.220066 0 0 1 110.8962,111.28115 Z"
       clip-path="none" />
    <g
       id="g4387"
       transform="translate(-207.1263,64.441008)">
      <path
         style="opacity:1;fill:#045de8;fill-opacity:1;stroke:#4cb23a;stroke-width:0.0088223;stroke-dasharray:none;stroke-opacity:0.966165"
         id="path4385"
         width="8.8437376"
         height="113.62698"
         x="70.338989"
         y="53.921867"
         mask="none"
         d="m 70.338989,53.921867 h 8.843738 V 167.54885 h -8.843738 z" />
      <path
         id="path4393"
         style="fill:#ffffff;fill-opacity:1"
         d="m 69.334578,52.917456 h 10.85256 V 168.55326 h -10.85256 z"
         inkscape:label="path4393" />
      <path
         id="path4391"
         style="fill:#ffffff;fill-opacity:1"
         d="m 69.334578,52.917456 h 10.85256 V 168.55326 h -10.85256 z" />
      <circle
         style="opacity:1;fill:#000000;fill-opacity:1;stroke:#bb5151;stroke-width:0.00778071;stroke-dasharray:none;stroke-opacity:1"
         id="circle4389"
         cx="74.760857"
         cy="110.73536"
         r="4.4223924" />
    </g>
    <path
       id="path4383"
       style="fill:#ffffff;fill-opacity:1;stroke-width:0.564185"
       d="m -137.35149,151.25348 h 9.9721 v 47.84578 h -9.9721 z" />
    <path
       id="path4381"
       style="fill:#ffffff;fill-opacity:1;stroke-width:0.564185"
       d="m -156.28833,151.25348 h 47.84578 v 47.84578 h -47.84578 z" />
    <path
       id="path4379"
       style="fill:#ffffff;fill-opacity:1;stroke-width:0.564185"
       d="m -156.28833,151.25348 h 47.84578 v 47.84578 h -47.84578 z"
       inkscape:label="path4379" />
    <path
       style="fill:#000000;fill-opacity:1;stroke:none;stroke-width:0.00491517;stroke-dasharray:none;stroke-opacity:1"
       d="m -107.55725,177.84317 -13.40502,2.86753 -0.11811,-11.06866 13.58218,2.86752 z"
       id="path4377" />
  </g>
  <path
     style="fill:#ffffff;fill-opacity:0;stroke:#bb5151;stroke-width:10;stroke-dasharray:none;stroke-opacity:1"
     d="M -79.842515,162.96986 V 285.37167"
     id="path4797-5" />
  <path
     id="path4452-8-30"
     style="fill:none;fill-opacity:0;stroke:#bb5151;stroke-width:8.00465;stroke-dasharray:none;stroke-opacity:1"
     d="M -20.178081 194.30759 A 22.546462 22.546462 0 0 1 -1.4847176 212.55625 " />
  <path
     id="path6457"
     style="fill:none;fill-opacity:0;stroke:#bb5151;stroke-width:8.00465;stroke-dasharray:none;stroke-opacity:1"
     d="m -37.400957,204.19412 a 22.546462,22.546462 0 0 1 -18.627485,-22.20326 22.546462,22.546462 0 0 1 18.627487,-22.20325" />
  <path
     id="path6455"
     style="fill:none;fill-opacity:0;stroke:#bb5151;stroke-width:8.00465;stroke-dasharray:none;stroke-opacity:1"
     d="M -20.177806 238.85674 A 22.546462 22.546462 0 0 1 -23.668838 239.12865 A 22.546462 22.546462 0 0 1 -27.587817 238.78544 " />
  <path
     id="path6453"
     style="fill:none;fill-opacity:0;stroke:#bb5151;stroke-width:8.00465;stroke-dasharray:none;stroke-opacity:1"
     d="M -1.4877576 220.62477 A 22.546462 22.546462 0 0 1 -20.177806 238.85674 " />
  <g
     id="rect4828-0" />
</svg>
